OpenSim_Sub04_CSBaseline_GRF.mot
version=1
nRows=63
nColumns=19
inDegrees=no
endheader
time	lFx	lFy	lFz	lCOPx	lCOPy	lCOPz	rFx	rFy	rFz	rCOPx	rCOPy	rCOPz	lMx	lMy	lMz	rMx	rMy	rMz
60.62000000	-23.41013718	503.64633737	36.71940596	1.08199135	0	-0.64250511	21.85275534	139.51858224	-6.10475601	0.84478323	0	-0.43833900	0	-20.49187406	0	0	0.04783819	0.00000000
60.63000000	-24.28103008	529.72895345	38.76158193	1.07956609	0	-0.64252013	11.55295665	99.75423213	-5.11987650	0.80728504	0	-0.42211896	0	-20.38806410	0	0	0.06231352	0.00000000
60.64000000	-24.43627295	561.65792599	40.38762856	1.07668878	0	-0.64257133	2.23682512	66.79036238	-4.40914473	0.69250738	0	-0.36382297	0	-20.03468284	0	0	0.05193988	0.00000000
60.65000000	-24.20573560	597.10980532	42.39236672	1.07355623	0	-0.64272947	-4.59412357	41.12928811	-3.70842325	0.47283225	0	-0.24876049	0	-19.64972141	0	0	0.06006357	0.00000000
60.66000000	-23.96563156	632.57745867	45.05911269	1.07023634	0	-0.64301585	-7.21295828	21.77427748	-2.82625662	0.21644475	0	-0.11416743	0	-19.40826258	0	0	0.04966833	0.00000000
60.67000000	-23.84990297	664.47621072	48.07855998	1.06680490	0	-0.64343392	-5.50661875	8.14606272	-1.61409841	0.04994965	0	-0.02651820	0	-19.37696473	0	0	0.02425774	-0.00000000
60.68000000	-23.96716628	690.26866696	51.04224872	1.06361528	0	-0.64399064	-2.55450110	0.83355387	-0.42564483	-0.01678735	0	0.00871649	0	-19.51673064	0	0	0.00646982	0.00000000
60.69000000	-24.23455077	708.64522890	53.65188423	1.06057300	0	-0.64463145	-0.57024446	-1.53619728	-0.10182208	-0.02671493	0	0.01402490	0	-19.75728609	0	0	-0.00117816	-0.00000000
60.70000000	-24.35014486	719.30990714	55.66727703	1.05747245	0	-0.64527718	0.24944855	-1.50511520	-0.05132517	-0.01712342	0	0.00901498	0	-20.02595459	0	0	-0.00265664	-0.00000000
60.71000000	-24.12450216	722.82407814	56.80449370	1.05422930	0	-0.64590218	0.36374426	-0.81241925	-0.01038890	-0.00676795	0	0.00357361	0	-20.29479255	0	0	-0.00183237	0.00000000
60.72000000	-23.52421246	720.61911558	56.99184160	1.05087334	0	-0.64652176	0.24448973	-0.20826205	-0.14062904	-0.00094381	0	0.00050534	0	-20.54993204	0	0	-0.00077754	-0.00000000
60.73000000	-22.68038248	714.25672848	56.43179321	1.04750803	0	-0.64712410	0.11417324	0.10961033	-0.15763364	0.00102349	0	-0.00053478	0	-20.78489279	0	0	-0.00014399	0.00000000
60.74000000	-21.78518353	704.85372426	55.38056638	1.04412944	0	-0.64770672	0.03256485	0.23993321	-0.13122937	0.00107454	0	-0.00056467	0	-20.99117960	0	0	0.00008889	0.00000000
60.75000000	-20.81773739	693.29322745	54.06949790	1.04054604	0	-0.64821474	0.00583186	0.32135101	-0.19953179	0.00059690	0	-0.00031448	0	-21.15733323	0	0	0.00010968	0.00000000
60.76000000	-19.59980478	680.43648423	52.58123294	1.03659980	0	-0.64857155	0.00702309	0.44840971	-0.21030445	0.00019813	0	-0.00010477	0	-21.25733641	0	0	0.00006504	-0.00000000
60.77000000	-17.82200865	666.99803877	50.93599464	1.03229008	0	-0.64874540	0.01262590	0.58144854	-0.19724192	0.00000242	0	-0.00000158	0	-21.30272780	0	0	0.00002354	0.00000000
60.78000000	-15.54067554	653.84385581	49.30523546	1.02787246	0	-0.64873883	0.01585257	0.61929886	-0.20139930	-0.00005030	0	0.00002635	0	-21.33268728	0	0	0.00000183	0.00000000
60.79000000	-13.23940579	642.06929968	47.74683413	1.02346616	0	-0.64856484	0.03854911	0.61911739	-0.14937485	-0.00004121	0	0.00002167	0	-21.29614898	0	0	-0.00000473	-0.00000000
60.80000000	-11.24899197	632.65642299	46.17869796	1.01898633	0	-0.64825643	0.05651923	0.62681425	-0.11741081	-0.00001998	0	0.00001053	0	-21.14684047	0	0	-0.00000430	0.00000000
60.81000000	-9.70949565	626.20692709	44.63603530	1.01436090	0	-0.64788099	0.04450675	0.62504095	-0.09534605	-0.00000526	0	0.00000279	0	-20.92979729	0	0	-0.00000220	-0.00000000
60.82000000	-8.50996029	622.71579682	43.13209867	1.00956059	0	-0.64749347	-0.00369294	0.58929130	-0.06499023	0.00000099	0	-0.00000052	0	-20.65626920	0	0	-0.00000061	-0.00000000
60.83000000	-7.53293587	621.82907729	41.74803506	1.00474036	0	-0.64713855	-0.06998642	0.55521971	-0.06491743	0.00000212	0	-0.00000113	0	-20.32705055	0	0	0.00000013	0.00000000
60.84000000	-6.61963568	622.81959236	40.63392854	0.99995807	0	-0.64682036	-0.09132660	0.51953901	-0.08589807	0.00000138	0	-0.00000075	0	-19.97246822	0	0	0.00000029	-0.00000000
60.85000000	-5.45669698	624.97645349	39.76768889	0.99503085	0	-0.64650673	-0.07405898	0.50527964	-0.11380815	0.00000060	0	-0.00000032	0	-19.61081455	0	0	0.00000007	0.00000000
60.86000000	-3.86655681	627.98822520	39.19051374	0.98971761	0	-0.64618128	-0.03411089	0.55585998	-0.12469194	0.00000052	0	-0.00000021	0	-19.29953541	0	0	-0.00000046	0.00000000
60.87000000	-1.98873551	631.98307800	38.96216191	0.98412264	0	-0.64584673	-0.00890373	0.58427356	-0.14182605	0.00000129	0	-0.00000047	0	-19.07745115	0	0	-0.00000127	0.00000000
60.88000000	-0.17904128	637.11926400	39.02271504	0.97835191	0	-0.64549849	0.00275213	0.59025082	-0.14544781	0.00000257	0	-0.00000096	0	-18.90106546	0	0	-0.00000194	-0.00000000
60.89000000	1.41276220	643.27852338	39.31345051	0.97248654	0	-0.64512792	0.01816010	0.62918416	-0.13639765	0.00000288	0	-0.00000110	0	-18.77149490	0	0	-0.00000105	-0.00000000
60.90000000	2.91437183	649.92622251	39.73114706	0.96654607	0	-0.64475488	0.05357071	0.65458927	-0.11265230	-0.00000112	0	0.00000038	0	-18.68288437	0	0	0.00000415	0.00000000
60.91000000	4.55257345	656.53665292	40.12647432	0.96050207	0	-0.64439399	0.12518688	0.63144139	-0.09886822	-0.00001449	0	0.00000540	0	-18.55896222	0	0	0.00001665	-0.00000000
60.92000000	6.37119677	662.83611186	40.50740091	0.95449762	0	-0.64405859	0.15911701	0.56322988	-0.10512735	-0.00004016	0	0.00001510	0	-18.43063932	0	0	0.00003517	0.00000000
60.93000000	8.38599750	668.39131658	40.84375230	0.94847886	0	-0.64373579	0.13869847	0.52209581	-0.11780057	-0.00006791	0	0.00002573	0	-18.36832927	0	0	0.00004443	0.00000000
60.94000000	10.72555589	672.70890197	40.97059844	0.94246879	0	-0.64341058	0.08345637	0.58334035	-0.14684119	-0.00005544	0	0.00002144	0	-18.33286745	0	0	0.00000253	0.00000000
60.95000000	13.40678988	675.40591618	40.90691650	0.93643529	0	-0.64307034	0.05985581	0.70782792	-0.15956873	0.00008791	0	-0.00003200	0	-18.33260779	0	0	-0.00016072	-0.00000000
60.96000000	16.26185647	676.43780735	40.79495428	0.93050323	0	-0.64271240	0.07835987	0.79709283	-0.15525662	0.00047916	0	-0.00017918	0	-18.36138165	0	0	-0.00050121	0.00000000
60.97000000	19.04625449	675.92316789	40.60557708	0.92466783	0	-0.64235225	0.09132012	0.78613645	-0.18256288	0.00113232	0	-0.00042674	0	-18.35725380	0	0	-0.00092370	-0.00000000
60.98000000	21.71450500	674.11132488	40.36396939	0.91865037	0	-0.64200126	0.10786876	0.67501440	-0.15008679	0.00164671	0	-0.00062593	0	-18.32500358	0	0	-0.00092497	0.00000000
60.99000000	24.24823154	671.41441337	40.14578638	0.91234808	0	-0.64163429	0.11440959	0.47600166	-0.05395455	0.00074343	0	-0.00029648	0	-18.28986431	0	0	0.00067322	0.00000000
61	26.52940328	668.09888971	39.79305603	0.90592355	0	-0.64123028	0.01247592	0.17292788	-0.05338509	-0.00397008	0	0.00146655	0	-18.19929370	0	0	0.00556666	0.00000000
61.01000000	28.46814513	664.25165096	39.22263194	0.89968367	0	-0.64080702	-0.34428033	-0.25588655	-0.15236800	-0.01496294	0	0.00561021	0	-18.08875510	0	0	0.01447489	-0.00000000
61.02000000	30.22814411	659.75510550	38.44841019	0.89364630	0	-0.64036378	-1.08555832	-0.62972501	-0.26439854	-0.03071550	0	0.01159986	0	-17.95852427	0	0	0.02316857	0.00000000
61.03000000	32.18101036	654.39922913	37.52341992	0.88773006	0	-0.63994674	-2.04629246	-0.15368023	-0.41167744	-0.03721679	0	0.01420915	0	-17.77412961	0	0	0.01598242	0.00000000
61.04000000	34.60086878	647.80134788	36.64947316	0.88183267	0	-0.63958468	-2.18080655	2.86051834	-0.55894828	0.00262845	0	-0.00052144	0	-17.57421737	0	0	-0.03896444	0.00000000
61.05000000	37.44299918	639.63017132	36.02851240	0.87594814	0	-0.63927429	0.80324299	10.61790242	-0.54974300	0.14916173	0	-0.05547445	0	-17.39353137	0	0	-0.17979029	0.00000000
61.06000000	40.48150438	629.93301682	35.66658640	0.86999963	0	-0.63902241	8.55156647	25.47514406	0.10576603	0.44629849	0	-0.16771148	0	-17.21692688	0	0	-0.40220533	-0.00000000
61.07000000	43.67250960	619.06665773	35.40217840	0.86400874	0	-0.63884313	18.04615226	47.79156285	2.03741106	0.80739441	0	-0.30539093	0	-17.06629691	0	0	-0.57126081	-0.00000000
61.08000000	46.93745029	607.38847598	35.00549994	0.85803551	0	-0.63872819	23.12511290	75.27421305	4.46791771	1.04648467	0	-0.39864785	0	-16.92717577	0	0	-0.64753932	0
61.09000000	50.11432873	594.92478673	34.27510121	0.85224125	0	-0.63866581	21.25585810	106.64271420	5.56660973	1.14280070	0	-0.43795810	0	-16.77909848	0	0	-0.61095876	0
61.10000000	52.91472837	581.25296893	33.07584862	0.84671420	0	-0.63864836	14.83489009	143.24228799	4.57785435	1.15853338	0	-0.44483973	0	-16.63877799	0	0	-0.51580433	0
61.11000000	55.30613843	565.47040498	31.20339257	0.84130927	0	-0.63866274	6.82690897	186.90359031	1.69256376	1.14603682	0	-0.43951660	0	-16.49197125	0	0	-0.48339272	0.00000000
61.12000000	57.39991797	546.24960592	28.47173571	0.83587790	0	-0.63865369	-1.45780126	237.35826289	-2.29151067	1.13098237	0	-0.43279574	0	-16.26423455	0	0	-0.60697674	0
61.13000000	58.99653949	522.05588571	24.86671545	0.83058866	0	-0.63853225	-9.68054093	291.64308516	-6.36474677	1.12102335	0	-0.42808589	0	-15.93305550	0	0	-0.87290373	0
61.14000000	59.60713663	491.65295905	20.49313988	0.82578417	0	-0.63814048	-17.61046409	345.62268375	-10.06103382	1.11613339	0	-0.42548107	0	-15.53137037	0	0	-1.24453855	0
61.15000000	58.70897346	454.35731141	15.40764756	0.82166336	0	-0.63745562	-24.57554306	394.93578067	-13.29286278	1.11400876	0	-0.42422574	0	-15.11761588	0	0	-1.65050464	0
61.16000000	55.97132317	410.01723373	9.70524967	0.81835600	0	-0.63670147	-29.85530866	436.47228208	-16.66297731	1.11275140	0	-0.42340764	0	-14.79734765	0	0	-1.84329537	0
61.17000000	51.25407633	359.39567177	3.67590693	0.81623547	0	-0.63635381	-33.73385005	469.93285168	-21.88957138	1.11116462	0	-0.42250159	0	-14.66280142	0	0	-1.94763367	0
61.18000000	44.70880315	304.50615112	-2.18174595	0.81650092	0	-0.63725841	-37.02546555	497.33836940	-28.90789763	1.10885373	0	-0.42130668	0	-14.79655763	0	0	-2.08480679	0
61.19000000	36.98521768	248.66682057	-7.15873106	0.82070590	0	-0.64039642	-40.04439950	520.86094049	-36.76630857	1.10611734	0	-0.41985936	0	-15.29024450	0	0	-2.25603417	0
61.20000000	28.98904742	195.57089021	-10.61066837	0.82781748	0	-0.64553711	-42.71597913	541.80140203	-44.79178862	1.10307950	0	-0.41836516	0	-16.11644098	0	0	-2.44435715	0
61.21000000	21.27090119	148.39383183	-12.41949198	0.83100315	0	-0.64791622	-44.85693851	561.01855398	-51.95227263	1.09981102	0	-0.41694937	0	-17.03739685	0	0	-2.57010150	0
61.22000000	14.08745884	108.95403239	-13.03275931	0.81371648	0	-0.63391302	-46.20106713	579.08392269	-57.29565310	1.09632486	0	-0.41567686	0	-17.50141169	0	0	-2.65950697	0
61.23000000	7.76257151	77.18001480	-13.10493425	0.74782929	0	-0.57988337	-46.40844243	596.32041583	-60.53993474	1.09242725	0	-0.41458127	0	-16.65226132	0	0	-2.74054287	0
61.24000000	2.70827897	52.00239131	-13.25706989	0.60667191	0	-0.46494266	-45.27584186	612.80725074	-61.91460644	1.08799992	0	-0.41369076	0	-13.75312843	0	0	-2.78752650	0
